<?xml version="1.0" encoding="utf-8"?>
<!-- Generator: Adobe Illustrator 18.0.0, SVG Export Plug-In . SVG Version: 6.00 Build 0)  -->
<!DOCTYPE svg PUBLIC "-//W3C//DTD SVG 1.1//EN" "http://www.w3.org/Graphics/SVG/1.1/DTD/svg11.dtd">
<svg version="1.1" id="Layer_1" xmlns="http://www.w3.org/2000/svg" xmlns:xlink="http://www.w3.org/1999/xlink" x="0px" y="0px"
	 viewBox="0 0 23 23" enable-background="new 0 0 23 23" xml:space="preserve" width="23px" height="23px">
<g>
	<path fill="#767676" d="M19.5,0h-16C1.6,0,0,1.6,0,3.5v16C0,21.4,1.6,23,3.5,23h16c1.9,0,3.5-1.6,3.5-3.5v-16C23,1.6,21.4,0,19.5,0
		z M22,19.5c0,1.4-1.1,2.5-2.5,2.5h-16C2.1,22,1,20.9,1,19.5v-16C1,2.1,2.1,1,3.5,1h16C20.9,1,22,2.1,22,3.5V19.5z"/>
	<rect x="8" y="10" fill="#767676" width="1" height="1"/>
	<rect x="12" y="10" fill="#767676" width="1" height="1"/>
	<rect x="10" y="10" fill="#767676" width="1" height="1"/>
	<rect x="8" y="12" fill="#767676" width="1" height="2"/>
	<rect x="12" y="12" fill="#767676" width="1" height="2"/>
	<rect x="10" y="12" fill="#767676" width="1" height="2"/>
	<rect x="14" y="10" fill="#767676" width="1" height="1"/>
	<rect x="14" y="12" fill="#767676" width="1" height="2"/>
	<path fill="#767676" d="M15,4h-1v2H9V4H8v2H5v11h13V6h-3V4z M17,7v9H6V7h2v1h1V7h5v1h1V7H17z"/>
</g>
</svg>
